# xmcd
# 
# Track frame offsets:
#     150
#     27995
#     41735
#     68259
#     83970
#     106887
#     123976
#     150044
#     169004
#     183059
# 
# Disc length: 2634
# 
# Revision: 1
# Processed by: cddbd v1.5.2PL0 Copyright (c) Steve Scherf et al.
# Submitted via: fre:ac v1.1beta1pre4
# 
DISCID=680a480a
DTITLE=Carey T. Smith - Birdy
DYEAR=2008
DGENRE=Jazz
TTITLE0=Carey T. Smith - In the Still of the Night
TTITLE1=Carey T. Smith - Bloomdido
TTITLE2=Carey T. Smith - Canadian Sunset
TTITLE3=Carey T. Smith - Hank's Dream
TTITLE4=Carey T. Smith - Dream Dancing
TTITLE5=Carey T. Smith - Move
TTITLE6=Carey T. Smith - I Concentrate on You
TTITLE7=Carey T. Smith - Barbados
TTITLE8=Carey T. Smith - Tico Tico no Fubá
TTITLE9=Carey T. Smith - The Eternal Triangle
EXTD=YEAR: 2008
EXTT0=
EXTT1=
EXTT2=
EXTT3=
EXTT4=
EXTT5=
EXTT6=
EXTT7=
EXTT8=
EXTT9=
PLAYORDER=
